<svg xmlns="http://www.w3.org/2000/svg" viewBox="0 0 75.9 87.3"><title>punchHoles</title><g id="Layer_2" data-name="Layer 2"><g id="Layer_1-2" data-name="Layer 1"><g id="Layer_2-2" data-name="Layer 2"><g id="Layer_1-2-2" data-name="Layer 1-2"><path d="M12.2,63A12.1,12.1,0,1,1,.1,75.1h0A12.08,12.08,0,0,1,12.16,63Z" fill="#fff"/><path d="M12.2,87.3A12.2,12.2,0,1,1,24.4,75.1,12.2,12.2,0,0,1,12.2,87.3Zm0-24.3A12.1,12.1,0,1,0,24.3,75.1h0A12.21,12.21,0,0,0,12.2,63Z" fill="#fff"/><path d="M17.5,0A17.66,17.66,0,0,1,29.8,5.1a17.21,17.21,0,0,1,5.1,12.3v7.9H33V17.4A15.26,15.26,0,0,0,28.5,6.5,15.44,15.44,0,0,0,17.6,2,15.26,15.26,0,0,0,6.7,6.5,15.44,15.44,0,0,0,2.2,17.4V60.5A15.26,15.26,0,0,0,6.7,71.4,15,15,0,0,0,13,75.2v2a17.34,17.34,0,0,1-7.6-4.5A17.21,17.21,0,0,1,.3,60.4v-43A17.66,17.66,0,0,1,5.4,5.1,16.63,16.63,0,0,1,17.5,0Z" fill="#4a4a4a"/></g></g><g id="Layer_2-3" data-name="Layer 2"><g id="Layer_1-2-3" data-name="Layer 1-2"><path d="M53.2,63A12.1,12.1,0,1,1,41.1,75.1h0A12.08,12.08,0,0,1,53.16,63Z" fill="#fff"/><path d="M53.2,87.3A12.2,12.2,0,1,1,65.4,75.1,12.2,12.2,0,0,1,53.2,87.3Zm0-24.3A12.1,12.1,0,1,0,65.3,75.1h0A12.21,12.21,0,0,0,53.2,63Z" fill="#fff"/><path d="M58.5,0A17.66,17.66,0,0,1,70.8,5.1a17.21,17.21,0,0,1,5.1,12.3v7.9H74V17.4A15.26,15.26,0,0,0,69.5,6.5,15.44,15.44,0,0,0,58.6,2,15.26,15.26,0,0,0,47.7,6.5a15.44,15.44,0,0,0-4.5,10.9V60.5a15.26,15.26,0,0,0,4.5,10.9A15,15,0,0,0,54,75.2v2A17.56,17.56,0,0,1,41.3,60.4v-43A17.66,17.66,0,0,1,46.4,5.1,16.63,16.63,0,0,1,58.5,0Z" fill="#4a4a4a"/></g></g></g></g></svg>