<?xml version="1.0" standalone="no"?>
<svg
  width="600"
  height="600"
  viewBox="0 0 600 600"
  xmlns="http://www.w3.org/2000/svg"
>
  <g transform="translate(300,300)">
    <path d="M102.9,-161.4C145.7,-132.7,201.1,-124.9,216.1,-97.2C231.1,-69.5,205.6,-21.8,192.2,23.2C178.8,68.1,177.4,110.4,159.5,147.1C141.5,183.9,107,215.3,70,215.7C33.1,216.2,-6.3,185.8,-48.2,170.6C-90.1,155.4,-134.6,155.3,-169.7,135.5C-204.9,115.8,-230.6,76.3,-234.7,34.9C-238.8,-6.4,-221.3,-49.7,-193.3,-78.7C-165.2,-107.7,-126.7,-122.4,-92.7,-155.1C-58.7,-187.7,-29.4,-238.4,0.4,-238.9C30.1,-239.5,60.2,-190,102.9,-161.4Z" fill="#4acea1" />
  </g>
</svg>
  