<?xml version="1.0" encoding="iso-8859-1"?>
<!-- Generator: Adobe Illustrator 19.0.0, SVG Export Plug-In . SVG Version: 6.00 Build 0)  -->
<svg version="1.1" id="Capa_1" xmlns="http://www.w3.org/2000/svg" xmlns:xlink="http://www.w3.org/1999/xlink" x="0px" y="0px"
	 viewBox="0 0 511.982 511.982" style="enable-background:new 0 0 511.982 511.982;" xml:space="preserve">
<path style="fill:#CCD1D9;" d="M369.331,356.354l-7.344,7.632L257.99,467.984L153.994,363.986l-22.397-3.601
	c15.358-6.719,29.839-13.844,38.396-20.242l8.078-8.077l47.921,47.92l31.998-16l32,16l46.396-46.396l6.398,6.398
	C348.066,344.948,358.534,350.995,369.331,356.354z"/>
<path style="fill:#656D78;" d="M429.829,381.502c-10.085-3.758-25.046-9.438-39.999-15.836c-7.445-3.202-13.616-5.952-20.499-9.312
	l-7.344,7.632L257.99,467.984L153.994,363.986l-22.397-3.601c-19.762,8.64-41.042,16.476-53.44,21.116
	c-29.44,11.039-44.158,22.086-44.158,51.521c0,29.516,0,74.959,0,74.959h223.992h215.994c0,0,0-45.443,0-74.959
	C473.984,403.588,459.265,392.541,429.829,381.502z"/>
<g style="opacity:0.2;">
	<path d="M353.332,372.353l0.195,0.094l8.46-8.461l7.344-7.632c-10.797-5.359-21.265-11.406-26.546-16.366l-6.398-6.398l-16,15.999
		l6.398,6.398C332.066,360.948,342.535,366.994,353.332,372.353z"/>
</g>
<g style="opacity:0.2;">
	<path d="M429.829,381.502c-10.085-3.758-25.046-9.438-39.999-15.836c-7.445-3.202-13.616-5.952-20.499-9.312l-7.344,7.632
		l-8.46,8.461l16.171,7.422l0,0c1.352,0.594,2.703,1.18,4.133,1.797c14.952,6.398,29.913,12.078,39.999,15.836
		c29.437,11.038,44.154,22.085,44.154,51.521c0,18.422,0,43.045,0,58.959h16c0,0,0-45.443,0-74.959
		C473.984,403.588,459.265,392.541,429.829,381.502z"/>
</g>
<g style="opacity:0.3;">
	<path style="fill:#FFFFFF;" d="M94.156,397.502c11.819-4.422,31.698-11.766,50.65-19.922l15.531-7
		c0.059-0.023,0.113-0.055,0.172-0.078l-6.516-6.516l-22.397-3.601c-19.762,8.64-41.042,16.476-53.44,21.116
		c-29.44,11.039-44.158,22.086-44.158,51.521c0,29.516,0,74.959,0,74.959h15.999c0-15.914,0-40.537,0-58.959
		C49.997,419.587,64.716,408.54,94.156,397.502z"/>
</g>
<g style="opacity:0.7;">
	<path style="fill:#FFFFFF;" d="M164.052,344.12c-1.546,0.953-3.171,1.914-4.901,2.891c-0.188,0.102-0.359,0.203-0.551,0.312
		c-2.074,1.156-4.277,2.312-6.562,3.477c-0.188,0.102-0.379,0.195-0.566,0.289c-6.141,3.109-12.902,6.242-19.874,9.297l22.397,3.601
		l6.516,6.516c10.272-4.883,19.394-9.804,25.483-14.358l8.078-8.078l-16-15.999l-8.078,8.077c-1.375,1.031-2.953,2.086-4.613,3.141
		C164.946,343.565,164.501,343.839,164.052,344.12z"/>
</g>
<g style="opacity:0.2;">
	<polygon points="257.99,355.987 177.993,309.512 177.993,339.988 225.992,387.986 257.99,371.986 289.99,387.986 337.988,339.988 
		337.988,309.512 	"/>
</g>
<polygon style="fill:#E6E9ED;" points="257.99,347.987 177.993,301.512 177.993,331.988 225.992,379.986 257.99,363.986 
	289.99,379.986 337.988,331.988 337.988,301.512 "/>
<g style="opacity:0.2;">
	<path d="M257.998,355.987c23.656,0,54.499-18.218,79.99-46.507v-7.969l-79.998,46.476l-79.997-46.476v7.945
		C203.488,337.762,234.339,355.987,257.998,355.987z"/>
</g>
<path style="fill:#EAC6BB;" d="M385.986,187.113v-23.12H130.003v23.12c0,83.752,79.278,160.874,127.995,160.874
	c48.718,0,127.996-77.122,127.996-160.874L385.986,187.113L385.986,187.113z"/>
<g style="opacity:0.2;">
	<path d="M130.003,171.992c0.086,0.012,56.045,8,127.987,8c71.998,0,127.996-8,127.996-8v-8H130.003V171.992z"/>
</g>
<g style="opacity:0.5;">
	<path style="fill:#FFFFFF;" d="M146.002,187.113v-13.179c-10.168-1.113-15.972-1.938-15.999-1.941v15.121
		c0,83.752,79.278,160.874,127.995,160.874c2.582,0,5.266-0.266,8-0.688C217.086,339.754,146.002,266.428,146.002,187.113z"/>
</g>
<g style="opacity:0.2;">
	<path d="M369.987,187.113v-13.179c10.171-1.113,15.968-1.938,15.999-1.941v15.121c0,83.752-79.278,160.874-127.996,160.874
		c-2.577,0-5.265-0.266-7.999-0.688C298.903,339.754,369.987,266.428,369.987,187.113z"/>
</g>
<polygon style="fill:#656D78;" points="257.99,3.994 34.01,51.992 257.99,99.991 481.984,51.992 "/>
<g style="opacity:0.2;">
	<polygon style="fill:#FFFFFF;" points="66.009,51.992 273.99,7.424 257.99,3.994 34.01,51.992 257.99,99.991 273.99,96.561 	"/>
</g>
<g style="opacity:0.2;">
	<polygon points="449.976,51.992 257.99,93.136 273.99,96.565 481.976,51.992 273.99,7.428 257.99,10.853 	"/>
</g>
<g>
	<path style="fill:#3A3847;" d="M258.228,391.978c-2.206,0-4.038-1.789-4.038-4s1.75-4,3.96-4h0.078c2.211,0,4.004,1.789,4.004,4
		S260.439,391.978,258.228,391.978z"/>
	<path style="fill:#3A3847;" d="M258.228,415.977c-2.206,0-4.038-1.789-4.038-4s1.75-4,3.96-4h0.078c2.211,0,4.004,1.789,4.004,4
		S260.439,415.977,258.228,415.977z"/>
</g>
<path style="fill:#656D78;" d="M385.986,72.554v91.438c0,0-55.998,8-127.996,8c-71.997,0-127.995-8-127.995-8V72.554l127.995,27.44
	L385.986,72.554z"/>
<g style="opacity:0.2;">
	<path d="M385.986,72.554v91.438c0,0-55.998,8-127.996,8c-71.997,0-127.995-8-127.995-8V72.554l127.995,27.44L385.986,72.554z"/>
</g>
<g style="opacity:0.2;">
	<polygon points="257.99,123.99 385.986,96.561 385.986,72.554 257.99,99.995 129.995,72.554 129.995,96.561 	"/>
</g>
<g style="opacity:0.2;">
	<path style="fill:#FFFFFF;" d="M145.994,99.991l-15.999-3.43v67.432c0,0,55.998,8,127.995,8c2.707,0,5.344-0.031,8-0.054
		c-68.08-0.555-119.996-7.945-119.996-7.945L145.994,99.991L145.994,99.991z"/>
</g>
<g style="opacity:0.2;">
	<path d="M369.987,99.991l15.999-3.43v67.432c0,0-55.998,8-127.996,8c-2.71,0-5.343-0.031-7.999-0.054
		c68.075-0.555,119.996-7.945,119.996-7.945V99.991z"/>
</g>
<g style="opacity:0.2;">
	<path style="fill:#FFFFFF;" d="M273.99,51.996c0,4.398-7.109,8-15.996,8c-8.8,0-15.999-3.602-15.999-8s7.199-8,15.999-8
		C266.881,43.996,273.99,47.598,273.99,51.996z"/>
</g>
<polygon style="fill:#FFCE54;" points="457.984,139.993 457.984,131.994 441.985,131.994 441.985,139.993 433.985,171.992 
	465.984,171.992 "/>
<g style="opacity:0.5;">
	<polygon style="fill:#FFFFFF;" points="441.985,139.993 433.985,171.992 441.985,171.992 449.984,139.993 	"/>
</g>
<rect x="441.981" y="115.991" style="fill:#656D78;" width="15.999" height="16"/>
<polygon style="fill:#FFCE54;" points="369.331,356.354 257.99,467.984 144.713,354.417 128.253,361.831 257.99,491.982 
	385.697,363.87 "/>
<g style="opacity:0.2;">
	<polygon points="348.074,369.666 257.99,459.984 166.055,367.806 160.502,370.494 257.99,467.984 353.535,372.447 	"/>
</g>
<g style="opacity:0.2;">
	<path d="M369.698,379.869L369.698,379.869c0.008,0.008,0.023,0.008,0.031,0.016l15.968-16.015l-16.366-7.516l-15.968,16.015
		L369.698,379.869z"/>
</g>
<g style="opacity:0.5;">
	<path style="fill:#FFFFFF;" d="M144.713,354.417l-16.46,7.414l15.952,15.999c0.199-0.086,0.402-0.164,0.602-0.25l15.531-7
		c0.117-0.055,0.223-0.109,0.336-0.164L144.713,354.417z"/>
</g>
<g style="opacity:0.2;">
	<rect x="441.981" y="130.991" width="15.999" height="9"/>
</g>
<g style="opacity:0.3;">
	<rect x="441.981" y="116.791" style="fill:#FFFFFF;" width="7.999" height="14.199"/>
</g>
<g>
	<path style="fill:#3A3847;" d="M473.984,511.982H33.998c-2.211,0-4-1.789-4-4v-74.959c0-31.717,16.433-43.896,46.752-55.264
		l3.141-1.172c12.75-4.766,32.019-11.961,50.104-19.866c18.085-7.914,30.386-14.383,37.604-19.78
		c1.773-1.328,4.277-0.961,5.598,0.812c1.324,1.766,0.961,4.272-0.809,5.593c-7.715,5.773-20.534,12.539-39.19,20.702
		c-18.28,7.992-37.674,15.234-50.506,20.031l-3.133,1.172c-28.159,10.555-41.562,20.397-41.562,47.771v70.959h431.987v-70.959
		c0-27.374-13.398-37.217-41.562-47.771c-9.929-3.703-24.913-9.383-40.163-15.914c-8.086-3.469-15.468-6.835-21.952-9.999
		c-12.515-6.219-21.101-11.594-26.265-16.438c-1.609-1.516-1.688-4.046-0.172-5.655c1.523-1.617,4.047-1.688,5.656-0.172
		c4.516,4.241,12.694,9.319,24.319,15.093c6.344,3.094,13.601,6.406,21.562,9.82c15.094,6.46,29.952,12.093,39.819,15.765
		c30.327,11.375,46.757,23.555,46.757,55.271v74.959C477.984,510.193,476.195,511.982,473.984,511.982z"/>
	<path style="fill:#3A3847;" d="M257.99,351.987c-49.729,0-131.995-77.06-131.995-164.874c0-2.211,1.789-4,4-4
		c2.21,0,3.999,1.789,3.999,4c0,80.893,77.354,156.874,123.996,156.874c46.64,0,123.996-75.981,123.996-156.874c0-2.211,1.789-4,4-4
		s4,1.789,4,4C389.986,274.928,307.716,351.987,257.99,351.987z"/>
	<path style="fill:#3A3847;" d="M129.995,167.993c-2.211,0-4-1.789-4-4V72.554c0-2.211,1.789-4,4-4c2.21,0,3.999,1.789,3.999,4
		v91.438C133.994,166.204,132.205,167.993,129.995,167.993z"/>
	<path style="fill:#3A3847;" d="M385.986,167.993c-2.211,0-4-1.789-4-4V72.554c0-2.211,1.789-4,4-4s4,1.789,4,4v91.438
		C389.986,166.204,388.197,167.993,385.986,167.993z"/>
	<path style="fill:#3A3847;" d="M257.99,175.992c-71.454,0-127.999-7.96-128.562-8.039c-2.188-0.312-3.707-2.34-3.395-4.527
		s2.371-3.703,4.527-3.395c0.555,0.082,56.572,7.961,127.429,7.961s126.871-7.879,127.434-7.961
		c2.141-0.309,4.211,1.207,4.523,3.395s-1.211,4.215-3.398,4.527C385.986,168.032,329.449,175.992,257.99,175.992z"/>
	<path style="fill:#3A3847;" d="M257.99,103.995c-0.281,0-0.562-0.031-0.84-0.09L33.162,55.906c-1.848-0.395-3.164-2.023-3.164-3.91
		s1.316-3.516,3.16-3.91L257.15,0.088c0.555-0.117,1.129-0.117,1.676,0l175.995,37.678c2.164,0.461,3.539,2.586,3.078,4.746
		c-0.469,2.167-2.633,3.562-4.75,3.074L257.99,8.088L53.095,51.996l204.896,43.909L433.15,58.406c2.117-0.469,4.281,0.91,4.75,3.074
		c0.461,2.16-0.922,4.285-3.078,4.746l-175.991,37.679C258.553,103.964,258.271,103.995,257.99,103.995z"/>
	<path style="fill:#3A3847;" d="M257.99,63.996c-11.401,0-19.999-5.16-19.999-12s8.598-12,19.999-12c11.398,0,20,5.16,20,12
		S269.388,63.996,257.99,63.996z M257.99,47.996c-8.14,0-11.999,3.207-11.999,4c0,0.792,3.859,4,11.999,4c7.742,0,12-3.004,12-4
		C269.99,51,265.732,47.996,257.99,47.996z"/>
	<path style="fill:#3A3847;" d="M449.984,55.996H289.349c-2.211,0-4-1.789-4-4s1.789-4,4-4h160.635c2.211,0,4,1.789,4,4
		C453.984,54.207,452.195,55.996,449.984,55.996z"/>
	<path style="fill:#3A3847;" d="M449.984,111.994c-2.211,0-4-1.789-4-4V51.996c0-2.211,1.789-4,4-4s4,1.789,4,4v55.998
		C453.984,110.205,452.195,111.994,449.984,111.994z"/>
	<path style="fill:#3A3847;" d="M457.984,119.994h-15.999c-2.211,0-4-1.789-4-4s1.789-4,4-4h15.999c2.211,0,4,1.789,4,4
		S460.195,119.994,457.984,119.994z"/>
	<path style="fill:#3A3847;" d="M457.984,135.994c-2.211,0-4-1.789-4-4v-16c0-2.211,1.789-4,4-4s4,1.789,4,4v16
		C461.984,134.205,460.195,135.994,457.984,135.994z"/>
	<path style="fill:#3A3847;" d="M457.984,135.994h-15.999c-2.211,0-4-1.789-4-4s1.789-4,4-4h15.999c2.211,0,4,1.789,4,4
		S460.195,135.994,457.984,135.994z"/>
	<path style="fill:#3A3847;" d="M441.985,135.994c-2.211,0-4-1.789-4-4v-15.199c0-2.21,1.789-4,4-4c2.21,0,3.999,1.789,3.999,4
		v15.199C445.984,134.205,444.195,135.994,441.985,135.994z"/>
	<path style="fill:#3A3847;" d="M433.985,175.992c-0.32,0-0.641-0.039-0.969-0.121c-2.148-0.535-3.445-2.707-2.914-4.847l8-31.999
		c0.531-2.148,2.672-3.453,4.852-2.91c2.147,0.535,3.444,2.707,2.913,4.847l-7.999,31.999
		C437.415,174.782,435.782,175.992,433.985,175.992z"/>
	<path style="fill:#3A3847;" d="M465.984,175.992h-31.999c-2.211,0-4-1.789-4-4c0-2.21,1.789-4,4-4h31.999c2.211,0,4,1.789,4,4
		S468.195,175.992,465.984,175.992z"/>
	<path style="fill:#3A3847;" d="M465.984,175.992c-1.797,0-3.43-1.211-3.883-3.031l-8-31.999c-0.531-2.14,0.766-4.312,2.914-4.847
		c2.109-0.551,4.312,0.762,4.852,2.91l8,31.999c0.531,2.14-0.766,4.312-2.914,4.847
		C466.633,175.953,466.304,175.992,465.984,175.992z"/>
	<path style="fill:#3A3847;" d="M385.986,191.113c-2.211,0-4-1.789-4-4v-7.121c0-2.211,1.789-4,4-4s4,1.789,4,4v7.121
		C389.986,189.324,388.197,191.113,385.986,191.113z"/>
	<path style="fill:#3A3847;" d="M129.995,191.113c-2.211,0-4-1.789-4-4v-7.121c0-2.211,1.789-4,4-4c2.21,0,3.999,1.789,3.999,4
		v7.121C133.994,189.324,132.205,191.113,129.995,191.113z"/>
	<path style="fill:#3A3847;" d="M225.996,383.986c-1.469,0-2.879-0.812-3.582-2.211c-0.988-1.977-0.188-4.383,1.789-5.367
		l31.999-15.999c1.972-0.984,4.374-0.188,5.366,1.789c0.984,1.976,0.188,4.374-1.789,5.366l-31.998,16
		C227.207,383.845,226.597,383.986,225.996,383.986z"/>
	<path style="fill:#3A3847;" d="M225.992,383.986c-1.023,0-2.047-0.391-2.828-1.172l-47.921-47.92
		c-1.562-1.562-1.602-4.133-0.039-5.695c1.555-1.562,4.055-1.609,5.617-0.039l47.998,47.998c1.562,1.562,1.562,4.094,0,5.656
		C228.038,383.595,227.015,383.986,225.992,383.986z"/>
	<path style="fill:#3A3847;" d="M177.993,335.988c-2.211,0-4-1.789-4-4v-16c0-2.211,1.789-4,4-4s4,1.789,4,4v16
		C181.993,334.199,180.204,335.988,177.993,335.988z"/>
	<path style="fill:#3A3847;" d="M289.99,383.986c-0.602,0-1.211-0.141-1.789-0.422l-31.999-16c-1.977-0.992-2.777-3.391-1.789-5.366
		c0.988-1.977,3.397-2.773,5.366-1.789l32,15.999c1.976,0.984,2.772,3.391,1.788,5.367
		C292.864,383.174,291.451,383.986,289.99,383.986z"/>
	<path style="fill:#3A3847;" d="M289.99,383.986c-1.023,0-2.047-0.391-2.828-1.172c-1.562-1.562-1.562-4.094,0-5.656l47.998-47.998
		c1.562-1.562,4.094-1.562,5.656,0s1.562,4.094,0,5.656l-47.999,47.998C292.036,383.595,291.013,383.986,289.99,383.986z"/>
	<path style="fill:#3A3847;" d="M337.988,335.988c-2.211,0-4-1.789-4-4v-16c0-2.211,1.789-4,4-4s4,1.789,4,4v16
		C341.988,334.199,340.199,335.988,337.988,335.988z"/>
	<path style="fill:#3A3847;" d="M257.99,471.983c-1.022,0-2.046-0.391-2.827-1.172L151.166,366.814
		c-1.562-1.562-1.562-4.093,0-5.655s4.094-1.562,5.656,0l103.996,103.997c1.562,1.562,1.562,4.093,0,5.655
		C260.037,471.593,259.013,471.983,257.99,471.983z"/>
	<path style="fill:#3A3847;" d="M257.99,471.983c-1.022,0-2.046-0.391-2.827-1.172c-1.562-1.562-1.562-4.093,0-5.655
		l103.996-103.997c1.562-1.562,4.094-1.562,5.656,0s1.562,4.093,0,5.655L260.818,470.811
		C260.037,471.593,259.013,471.983,257.99,471.983z"/>
	<path style="fill:#3A3847;" d="M257.99,495.982c-1.022,0-2.046-0.391-2.827-1.172L135.166,374.814
		c-1.562-1.562-1.562-4.094,0-5.656s4.094-1.562,5.656,0l119.996,119.997c1.562,1.562,1.562,4.093,0,5.655
		C260.037,495.592,259.013,495.982,257.99,495.982z"/>
	<path style="fill:#3A3847;" d="M257.99,495.982c-1.022,0-2.046-0.391-2.827-1.172c-1.562-1.562-1.562-4.093,0-5.655
		l119.996-119.997c1.562-1.562,4.094-1.562,5.655,0c1.562,1.562,1.562,4.094,0,5.656L260.818,494.81
		C260.037,495.592,259.013,495.982,257.99,495.982z"/>
</g>
<g>
</g>
<g>
</g>
<g>
</g>
<g>
</g>
<g>
</g>
<g>
</g>
<g>
</g>
<g>
</g>
<g>
</g>
<g>
</g>
<g>
</g>
<g>
</g>
<g>
</g>
<g>
</g>
<g>
</g>
</svg>
